<?xml version="1.0" encoding="UTF-8"?>
<svg version="1.1" viewBox="0 0 2048 2048" width="25" height="25" xmlns="http://www.w3.org/2000/svg">
<path transform="translate(51,110)" d="m0 0h248l16 2 16 4 16 6 17 9 17 12 13 12 9 11 9 13 11 21 6 18 22 82 24 89 23 85 1 7h83l501 2 816 3 41 1 17 3 18 6 17 9 13 10 10 9 10 12 10 16 8 19 3 10 2 1v50h-2l-2 12-15 65-19 82-14 61-22 95-48 208-17 74-11 46-7 19-10 19-10 14-9 10-12 12-11 8-15 9-18 8-21 6-20 3-1178 1-16 3-12 5-12 9-8 9-8 16-3 11-1 7v12l2 12 5 13 6 10 8 9 13 8 13 5 10 2 12 1 436 1h416l302-1 58 1 13 4 13 8 7 6 9 12 5 12 3 13v9l-3 15-8 16-11 12-10 7-7 3 1 5 9 24 5 18 4 24 1 10v22l-3 26-5 22-9 25-8 17-11 18-9 12-9 11-7 8-8 7-9 8-15 11-20 12-17 8-27 9-26 5-19 2h-20l-25-3-26-6-21-8-16-8-16-9-19-14-16-15-14-15-13-18-11-19-7-15-7-19-6-25-2-13-1-12v-25l3-24 6-24 6-18 4-10h-257l-118 1 5 11 7 22 5 23 2 18v25l-2 20-4 20-6 20-6 15-8 16-11 18-13 17-14 15-10 9-13 10-15 10-23 12-21 8-24 6-20 3-12 1h-20l-19-2-20-4-23-7-18-8-14-7-14-9-13-10-10-9-9-8v-2h-2l-7-8-12-15-12-19-12-25-7-21-5-22-2-15-1-26 2-23 5-24 7-23 5-11 1-2h-92l-20-2-17-3-17-5-20-8-15-8-15-10-16-13-17-17-15-20-11-19-9-21-6-21-3-16-1-9v-33l4-25 5-17 6-16 8-16 9-15 10-13 9-10 7-8 8-7 17-13 17-10 17-8 18-6 21-5 17-2h7l-5-18-25-93-11-40-10-38-18-66-10-38-19-70-18-67-24-89-25-93-17-63-11-40-10-38-19-70-18-67-24-89-9-33-6-12-8-5-5-1-238-1-16-4-12-6-12-11-7-10-4-8-3-8v-28l7-15 6-9 4-5 10-8 12-6zm481 492 4 17 24 89 21 78 23 85 1 3h232l-1-15-13-99-15-111-6-45-1-1-154-1zm392 2 2 20 24 181 9 65 1 4h228v-269l-69-1zm386 1-1 4v265h227l2-7 6-43 11-83 15-115 2-15v-5l-157-1zm385 2-2 7-13 97-10 77-11 84v2h206l3-7 17-73 17-74 13-56 12-53v-3l-80-1zm-1057 388 4 17 18 67 41 152 4 12 5 8 8 7 7 3 5 1h159l-3-27-16-121-15-112-2-7zm338 0 2 20 31 233 2 13 1 1 172 1 4-1v-267zm333 0v268l176-1 2-6 15-114 12-90 7-53v-4zm335 0-2 7-5 36-10 76-16 122-3 21v5h149l10-3 8-6 5-8 4-14 24-104 14-61 10-43 6-26v-2zm-786 643-15 3-15 6-12 8-10 9-10 11-8 14-5 13-3 16v20l4 18 5 12 9 14 9 10 11 9 14 8 18 6 7 1h25l16-4 12-5 10-6 9-7 11-11 8-12 7-17 3-13 1-17-2-16-6-18-9-16-11-12-8-7-13-8-15-6-15-3zm759 0-15 3-15 6-11 7-11 9-11 13-6 10-6 15-3 14v25l4 16 5 12 7 12 11 12 8 7 13 8 14 6 15 3h25l19-5 16-8 13-10 8-8 10-15 5-11 4-14 1-8v-21l-3-14-5-13-7-13-9-11-10-9-14-9-15-6-16-3z"/>
</svg>
